<svg width="38" height="38" viewBox="0 0 38 38" fill="none" xmlns="http://www.w3.org/2000/svg">
<path d="M19 0C8.50656 0 0 8.36198 0 18.6771C0 28.9922 8.50656 37.3541 19 37.3541C29.4934 37.3541 38 28.9922 38 18.6771C38 8.36198 29.4934 0 19 0ZM19 33.7392C10.5318 33.7392 3.67742 27.0026 3.67742 18.6771C3.67742 10.3529 10.5305 3.61492 19 3.61492C27.4682 3.61492 34.3226 10.3515 34.3226 18.6771C34.3226 27.0013 27.4695 33.7392 19 33.7392ZM27.2245 26.128C26.4879 26.8594 23.7363 29.2456 19.2518 29.2456C12.9365 29.2456 8.48886 24.6196 8.48886 18.5841C8.48886 12.6231 13.1067 8.08567 19.1964 8.08567C23.4508 8.08567 25.9949 10.0904 26.6733 10.7049C26.8327 10.849 26.9351 11.044 26.9622 11.2552C26.9894 11.4664 26.9396 11.6802 26.8216 11.8588L25.4307 13.976C25.1365 14.4241 24.514 14.5244 24.0901 14.196C23.4316 13.6857 21.6527 12.4987 19.3625 12.4987C15.6618 12.4987 13.3931 15.1594 13.3931 18.5297C13.3931 21.6618 15.4531 24.8326 19.3901 24.8326C21.8921 24.8326 23.745 23.3988 24.4256 22.7823C24.8293 22.4165 25.4672 22.4781 25.7908 22.9132L27.3127 24.9593C27.4425 25.1324 27.5049 25.3454 27.4887 25.5597C27.4725 25.7741 27.3788 25.9757 27.2245 26.128Z" fill="black"/>
</svg>
