<svg width="37" height="55" viewBox="0 0 37 55" fill="none" xmlns="http://www.w3.org/2000/svg">
<path d="M27.4997 36.363C32.5623 36.363 36.6663 32.3287 36.6663 27.3522C36.6663 22.3756 32.5623 18.3413 27.4997 18.3413C22.4371 18.3413 18.333 22.3756 18.333 27.3522C18.333 32.3287 22.4371 36.363 27.4997 36.363Z" fill="#19BCFE"/>
<path fill-rule="evenodd" clip-rule="evenodd" d="M9.16667 54.385C14.2293 54.385 18.3333 50.3507 18.3333 45.3741C18.3333 44.0156 18.3333 41.012 18.3333 36.3633C14.2153 36.3633 11.1597 36.3633 9.16667 36.3633C4.10406 36.3633 0 40.3976 0 45.3741C0 50.3507 4.10406 54.385 9.16667 54.385Z" fill="#09CF83"/>
<path fill-rule="evenodd" clip-rule="evenodd" d="M9.16667 36.363H18.3333V18.3413C13.9098 18.3413 10.8542 18.3413 9.16667 18.3413C4.10406 18.3413 0 22.3756 0 27.3522C0 32.3287 4.10406 36.363 9.16667 36.363Z" fill="#A259FF"/>
<path fill-rule="evenodd" clip-rule="evenodd" d="M9.16667 18.3416H18.3333V0.319824C13.9098 0.319824 10.8542 0.319824 9.16667 0.319824C4.10406 0.319824 0 4.35413 0 9.33069C0 14.3073 4.10406 18.3416 9.16667 18.3416Z" fill="#F24E1E"/>
<path fill-rule="evenodd" clip-rule="evenodd" d="M27.4997 18.3416H18.333V0.319824H27.4997C32.5623 0.319824 36.6663 4.35413 36.6663 9.33069C36.6663 14.3073 32.5623 18.3416 27.4997 18.3416Z" fill="#FF7262"/>
</svg>
