<svg width="60" height="60" viewBox="0 0 60 60" fill="none" xmlns="http://www.w3.org/2000/svg">
<path d="M30 0C26.0603 0 22.1593 0.795238 18.5195 2.34031C14.8797 3.88538 11.5726 6.15003 8.7868 9.00495C3.16071 14.7707 0 22.5908 0 30.7448C0 44.334 8.61 55.8633 20.52 59.9524C22.02 60.1983 22.5 59.2453 22.5 58.4151C22.5 57.708 22.5 55.7711 22.5 53.2193C14.19 55.064 12.42 49.0995 12.42 49.0995C11.04 45.5331 9.09 44.58 9.09 44.58C6.36 42.6738 9.3 42.7353 9.3 42.7353C12.3 42.9505 13.89 45.902 13.89 45.902C16.5 50.5752 20.91 49.1917 22.62 48.4538C22.89 46.4554 23.67 45.1026 24.51 44.334C17.85 43.5654 10.86 40.9213 10.86 29.2076C10.86 25.7949 12 23.0586 13.95 20.8757C13.65 20.1071 12.6 16.9096 14.25 12.7591C14.25 12.7591 16.77 11.929 22.5 15.8951C24.87 15.2187 27.45 14.8805 30 14.8805C32.55 14.8805 35.13 15.2187 37.5 15.8951C43.23 11.929 45.75 12.7591 45.75 12.7591C47.4 16.9096 46.35 20.1071 46.05 20.8757C48 23.0586 49.14 25.7949 49.14 29.2076C49.14 40.9521 42.12 43.5346 35.43 44.3033C36.51 45.2564 37.5 47.1318 37.5 49.9911V58.4151C37.5 59.2453 37.98 60.2291 39.51 59.9524C51.42 55.8326 60 44.334 60 30.7448C60 26.7073 59.224 22.7094 57.7164 18.9793C56.2087 15.2491 53.999 11.8599 51.2132 9.00495C48.4274 6.15003 45.1203 3.88538 41.4805 2.34031C37.8407 0.795238 33.9397 0 30 0Z" fill="white"/>
</svg>
